# xmcd
#
# Track frame offsets: 
#        150
#        10468
#        21650
#        32861
#        43700
#        54604
#        67301
#        79988
#        95623
#        105615
#        118560
#        130149
#
# Disc length: 1912 seconds
#
# Revision: 0
# Processed by: cddbd v1.5.2PL0 Copyright (c) Steve Scherf et al.
# Submitted via: ExactAudioCopy v1.0b3
#
DISCID=ae07760c
DTITLE=Howlin' Wolf - Howlin' Wolf [Digitally Remastered]
DYEAR=2013
DGENRE=Blues
TTITLE0=Shake For Me
TTITLE1=The Red Rooster
TTITLE2=You'll Be Mine
TTITLE3=Who's Been Talkin'
TTITLE4=Wang Dang Doodle
TTITLE5=Little Baby
TTITLE6=Spoonful
TTITLE7=Going Down Slow
TTITLE8=Down In The Bottom
TTITLE9=Back Door Man
TTITLE10=Howlin' For My Baby
TTITLE11=Tell Me
EXTD=
EXTT0=
EXTT1=
EXTT2=
EXTT3=
EXTT4=
EXTT5=
EXTT6=
EXTT7=
EXTT8=
EXTT9=
EXTT10=
EXTT11=
PLAYORDER=
